<?xml version="1.0" standalone="no"?><!DOCTYPE svg PUBLIC "-//W3C//DTD SVG 1.1//EN" "http://www.w3.org/Graphics/SVG/1.1/DTD/svg11.dtd"><svg t="1602828779305" class="icon" viewBox="0 0 1024 1024" version="1.1" xmlns="http://www.w3.org/2000/svg" p-id="1666" xmlns:xlink="http://www.w3.org/1999/xlink" width="200" height="200"><defs><style type="text/css"></style></defs><path d="M512 85.333333c235.648 0 426.666667 191.018667 426.666667 426.666667s-191.018667 426.666667-426.666667 426.666667S85.333333 747.648 85.333333 512 276.352 85.333333 512 85.333333z m0 85.333334a341.333333 341.333333 0 1 0 0 682.666666 341.333333 341.333333 0 0 0 0-682.666666z m0 298.666666c85.333333 0 156.458667 14.208 213.333333 42.666667a213.333333 213.333333 0 0 1-426.666666 0c56.874667-28.458667 128-42.666667 213.333333-42.666667zM362.666667 298.666667a106.666667 106.666667 0 0 1 104.533333 85.333333h-209.066667A106.666667 106.666667 0 0 1 362.666667 298.666667z m298.666666 0a106.666667 106.666667 0 0 1 104.533334 85.333333h-209.066667a106.666667 106.666667 0 0 1 104.533333-85.333333z" p-id="1667"></path></svg>