<?xml version="1.0" standalone="no"?><!DOCTYPE svg PUBLIC "-//W3C//DTD SVG 1.1//EN" "http://www.w3.org/Graphics/SVG/1.1/DTD/svg11.dtd"><svg t="1602669806602" class="icon" viewBox="0 0 1024 1024" version="1.1" xmlns="http://www.w3.org/2000/svg" p-id="9981" xmlns:xlink="http://www.w3.org/1999/xlink" width="200" height="200"><defs><style type="text/css"></style></defs><path d="M0 60.235294l0 903.529412 1024 0 0-903.529412-1024 0zM963.764706 120.470588l0 180.705882-903.529412 0 0-180.705882 903.529412 0zM60.235294 903.529412l0-542.117647 903.529412 0 0 542.117647-903.529412 0zM421.647059 240.941176l-60.235294 0 0-60.235294 60.235294 0 0 60.235294zM301.176471 240.941176l-60.235294 0 0-60.235294 60.235294 0 0 60.235294zM180.705882 240.941176l-60.235294 0 0-60.235294 60.235294 0 0 60.235294z" p-id="9982"></path></svg>