<?xml version="1.0" standalone="no"?><!DOCTYPE svg PUBLIC "-//W3C//DTD SVG 1.1//EN" "http://www.w3.org/Graphics/SVG/1.1/DTD/svg11.dtd"><svg t="1602669395633" class="icon" viewBox="0 0 1024 1024" version="1.1" xmlns="http://www.w3.org/2000/svg" p-id="2438" xmlns:xlink="http://www.w3.org/1999/xlink" width="200" height="200"><defs><style type="text/css"></style></defs><path d="M346.96 320.528l329.936 0 0 48-329.936 0 0-48Z" p-id="2439"></path><path d="M346.96 435.568l329.936 0 0 48-329.936 0 0-48Z" p-id="2440"></path><path d="M816.24 127.984l-608 0c-8.848 0-16 7.152-16 16l0 533.168c-0.176 1.536-0.464 3.056-0.464 4.64 0 78.592 58.896 143.552 134.848 153.424l-0.464 0.352 474.096 60.448c17.664 0 32-14.32 32-32L832.256 143.984C832.24 135.136 825.072 127.984 816.24 127.984zM752.24 803.296l-317.44-186.16c-7.456-4.736-13.504-1.424-13.504 7.424l0 54.752 0-0.224c-0.064 0.912 0 1.776 0 2.704 0 41.28-33.392 74.864-74.672 74.864s-74.384-30.848-74.384-72.128c0-1.456 0.144-3.52 0-4.928l0-2.048L272.24 207.984l480 0L752.24 803.296z" p-id="2441"></path></svg>