<?xml version="1.0" standalone="no"?><!DOCTYPE svg PUBLIC "-//W3C//DTD SVG 1.1//EN" "http://www.w3.org/Graphics/SVG/1.1/DTD/svg11.dtd"><svg t="1602841495068" class="icon" viewBox="0 0 1024 1024" version="1.1" xmlns="http://www.w3.org/2000/svg" p-id="1977" xmlns:xlink="http://www.w3.org/1999/xlink" width="200" height="200"><defs><style type="text/css"></style></defs><path d="M212.992 85.333333h598.016a85.333333 85.333333 0 0 1 84.821333 75.989334l75.093334 682.666666A85.333333 85.333333 0 0 1 886.101333 938.666667H137.898667a85.333333 85.333333 0 0 1-84.821334-94.677334l75.093334-682.666666A85.333333 85.333333 0 0 1 212.992 85.333333zM298.666667 341.333333a213.333333 213.333333 0 0 0 426.666666 0 42.666667 42.666667 0 0 0-85.333333 0 128 128 0 0 1-256 0 42.666667 42.666667 0 1 0-85.333333 0z" p-id="1978"></path></svg>