<?xml version="1.0" standalone="no"?><!DOCTYPE svg PUBLIC "-//W3C//DTD SVG 1.1//EN" "http://www.w3.org/Graphics/SVG/1.1/DTD/svg11.dtd"><svg t="1601369609671" class="icon" viewBox="0 0 1024 1024" version="1.1" xmlns="http://www.w3.org/2000/svg" p-id="9472" xmlns:xlink="http://www.w3.org/1999/xlink" width="200" height="200"><defs><style type="text/css"></style></defs><path d="M590.924537 961.53739l315.021743 0c29.514197 0 53.44012-23.808242 53.44012-53.166897L959.3864 587.522044c0-29.353538-23.920806-53.151547-53.44012-53.151547L590.924537 534.370497c-29.513174 0-53.428863 23.799032-53.428863 53.151547l0 320.848449C537.495674 937.729148 561.411363 961.53739 590.924537 961.53739L590.924537 961.53739zM590.924537 961.53739" p-id="9473"></path><path d="M120.061446 495.943302l315.030953 0c29.513174 0 53.428863-23.799032 53.428863-53.156664L488.521263 121.933073c0-29.353538-23.915689-53.151547-53.428863-53.151547L120.061446 68.781526c-29.498848 0-53.429887 23.799032-53.429887 53.151547l0 320.857659C66.630536 472.145293 90.561575 495.943302 120.061446 495.943302L120.061446 495.943302zM126.153188 142.468782c0-7.644097 6.318916-13.860682 14.069437-13.860682l274.707572 0c7.758708 0 14.068414 6.216585 14.068414 13.860682l0 279.788288c0 7.644097-6.309706 13.860682-14.068414 13.860682L140.222625 436.117752c-7.746428 0-14.069437-6.216585-14.069437-13.860682L126.153188 142.468782 126.153188 142.468782zM103.926978 121.933073" p-id="9474"></path><path d="M120.061446 961.535343l315.030953 0c29.513174 0 53.428863-23.799032 53.428863-53.156664L488.521263 587.525114c0-29.353538-23.915689-53.151547-53.428863-53.151547L120.061446 534.373567c-29.498848 0-53.429887 23.799032-53.429887 53.151547l0 320.857659C66.630536 937.736311 90.561575 961.535343 120.061446 961.535343L120.061446 961.535343zM126.153188 608.059799c0-7.644097 6.318916-13.860682 14.069437-13.860682l274.707572 0c7.758708 0 14.068414 6.216585 14.068414 13.860682l0 279.788288c0 7.644097-6.309706 13.860682-14.068414 13.860682L140.222625 901.708769c-7.746428 0-14.069437-6.216585-14.069437-13.860682L126.153188 608.059799 126.153188 608.059799zM103.926978 587.525114" p-id="9475"></path><path d="M590.926584 495.943302 905.957537 495.943302c29.513174 0 53.428863-23.799032 53.428863-53.156664L959.3864 121.933073c0-29.353538-23.915689-53.151547-53.428863-53.151547L590.926584 68.781526c-29.499871 0-53.43091 23.799032-53.43091 53.151547l0 320.857659C537.495674 472.145293 561.426713 495.943302 590.926584 495.943302L590.926584 495.943302zM597.018326 142.468782c0-7.644097 6.318916-13.860682 14.069437-13.860682l274.707572 0c7.758708 0 14.068414 6.216585 14.068414 13.860682l0 279.788288c0 7.644097-6.309706 13.860682-14.068414 13.860682L611.087762 436.117752c-7.746428 0-14.069437-6.216585-14.069437-13.860682L597.018326 142.468782 597.018326 142.468782zM574.791092 121.933073" p-id="9476"></path></svg>