<?xml version="1.0" standalone="no"?><!DOCTYPE svg PUBLIC "-//W3C//DTD SVG 1.1//EN" "http://www.w3.org/Graphics/SVG/1.1/DTD/svg11.dtd"><svg t="1602841634799" class="icon" viewBox="0 0 1024 1024" version="1.1" xmlns="http://www.w3.org/2000/svg" p-id="3010" xmlns:xlink="http://www.w3.org/1999/xlink" width="200" height="200"><defs><style type="text/css"></style></defs><path d="M768 712.544L644.256 298.688l81.056-200.544c4.256-12.8 4.256-29.856-4.256-38.4-12.8-8.544-25.6-17.056-38.4-17.056H341.312c-12.8 0-25.6 8.544-34.144 17.056s-12.8 29.856-4.256 42.656l76.8 196.256-123.744 413.856c-4.256 17.056 0 29.856 12.8 42.656l213.344 213.344c8.544 8.544 21.344 12.8 29.856 12.8s21.344-4.256 29.856-12.8l213.344-213.344c12.8-12.8 17.056-25.6 12.8-42.656zM618.656 128l-51.2 128h-110.944l-51.2-128h213.344zM512 878.944l-166.4-166.4 110.944-371.2H563.2l110.944 371.2-162.144 166.4z" p-id="3011"></path></svg>